<?xml version="1.0" encoding="UTF-8" standalone="no"?>
<!DOCTYPE svg PUBLIC "-//W3C//DTD SVG 1.1//EN"
 "http://www.w3.org/Graphics/SVG/1.1/DTD/svg11.dtd">
<!-- Generated by graphviz version 2.40.1 (20161225.0304)
 -->
<!-- Title: G Pages: 1 -->
<svg width="715pt" height="515pt"
 viewBox="0.00 0.00 715.00 515.00" xmlns="http://www.w3.org/2000/svg" xmlns:xlink="http://www.w3.org/1999/xlink">
<g id="graph0" class="graph" transform="scale(1 1) rotate(0) translate(4 511)">
<title>G</title>
<polygon fill="#ffffff" stroke="transparent" points="-4,4 -4,-511 711,-511 711,4 -4,4"/>
<g id="clust1" class="cluster">
<title>cluster_root</title>
<g id="a_clust1"><a xlink:title="eventq_index=0&#10;full_system=false&#10;sim_quantum=0&#10;time_sync_enable=false&#10;time_sync_period=100000000000&#10;time_sync_spin_threshold=100000000">
<path fill="#bab6ae" stroke="#000000" d="M20,-8C20,-8 687,-8 687,-8 693,-8 699,-14 699,-20 699,-20 699,-487 699,-487 699,-493 693,-499 687,-499 687,-499 20,-499 20,-499 14,-499 8,-493 8,-487 8,-487 8,-20 8,-20 8,-14 14,-8 20,-8"/>
<text text-anchor="middle" x="353.5" y="-483.8" font-family="Arial" font-size="14.00" fill="#000000">root </text>
<text text-anchor="middle" x="353.5" y="-468.8" font-family="Arial" font-size="14.00" fill="#000000">: Root</text>
</a>
</g>
</g>
<g id="clust2" class="cluster">
<title>cluster_system</title>
<g id="a_clust2"><a xlink:title="boot_osflags=a&#10;cache_line_size=64&#10;eventq_index=0&#10;exit_on_work_items=false&#10;init_param=0&#10;kernel=&#10;kernel_addr_check=true&#10;kernel_extras=&#10;&#10;oad_addr_mask=18446744073709551615&#10;&#10;oad_offset=0&#10;mem_mode=timing&#10;mem_ranges=0:536870911&#10;memories=system.mem_ctrls&#10;mmap_using_noreserve=false&#10;multi_thread=false&#10;&#10;um_work_ids=16&#10;&#13;eadfile=&#10;&#13;edirect_paths=system.redirect_paths0 system.redirect_paths1 system.redirect_paths2 system.redirect_paths3&#10;symbolfile=&#10;thermal_components=&#10;thermal_model=Null&#10;work_begin_ckpt_count=0&#10;work_begin_cpu_id_exit=&#45;1&#10;work_begin_exit_count=0&#10;work_cpus_ckpt_count=0&#10;work_end_ckpt_count=0&#10;work_end_exit_count=0&#10;work_item_id=&#45;1">
<path fill="#e4e7eb" stroke="#000000" d="M28,-16C28,-16 679,-16 679,-16 685,-16 691,-22 691,-28 691,-28 691,-441 691,-441 691,-447 685,-453 679,-453 679,-453 28,-453 28,-453 22,-453 16,-447 16,-441 16,-441 16,-28 16,-28 16,-22 22,-16 28,-16"/>
<text text-anchor="middle" x="353.5" y="-437.8" font-family="Arial" font-size="14.00" fill="#000000">system </text>
<text text-anchor="middle" x="353.5" y="-422.8" font-family="Arial" font-size="14.00" fill="#000000">: System</text>
</a>
</g>
</g>
<g id="clust3" class="cluster">
<title>cluster_system_membus</title>
<g id="a_clust3"><a xlink:title="clk_domain=system.clk_domain&#10;default_p_state=UNDEFINED&#10;eventq_index=0&#10;forward_latency=4&#10;frontend_latency=3&#10;max_outstanding_snoops=512&#10;max_routing_table_size=512&#10;p_state_clk_gate_bins=20&#10;p_state_clk_gate_max=1000000000000&#10;p_state_clk_gate_min=1000&#10;point_of_coherency=true&#10;point_of_unification=true&#10;power_model=&#10;&#13;esponse_latency=2&#10;snoop_filter=system.membus.snoop_filter&#10;snoop_response_latency=4&#10;system=system&#10;use_default_range=false&#10;width=16">
<path fill="#6f798c" stroke="#000000" d="M220,-231C220,-231 346,-231 346,-231 352,-231 358,-237 358,-243 358,-243 358,-310 358,-310 358,-316 352,-322 346,-322 346,-322 220,-322 220,-322 214,-322 208,-316 208,-310 208,-310 208,-243 208,-243 208,-237 214,-231 220,-231"/>
<text text-anchor="middle" x="283" y="-306.8" font-family="Arial" font-size="14.00" fill="#000000">membus </text>
<text text-anchor="middle" x="283" y="-291.8" font-family="Arial" font-size="14.00" fill="#000000">: SystemXBar</text>
</a>
</g>
</g>
<g id="clust12" class="cluster">
<title>cluster_system_mem_ctrls</title>
<g id="a_clust12"><a xlink:title="bandwidth=73.000000&#10;clk_domain=system.clk_domain&#10;conf_table_reported=true&#10;default_p_state=UNDEFINED&#10;eventq_index=0&#10;in_addr_map=true&#10;kvm_map=true&#10;&#10;atency=30000&#10;&#10;atency_var=0&#10;&#10;ull=false&#10;p_state_clk_gate_bins=20&#10;p_state_clk_gate_max=1000000000000&#10;p_state_clk_gate_min=1000&#10;power_model=&#10;&#13;ange=0:536870911">
<path fill="#5e5958" stroke="#000000" d="M36,-40C36,-40 133,-40 133,-40 139,-40 145,-46 145,-52 145,-52 145,-119 145,-119 145,-125 139,-131 133,-131 133,-131 36,-131 36,-131 30,-131 24,-125 24,-119 24,-119 24,-52 24,-52 24,-46 30,-40 36,-40"/>
<text text-anchor="middle" x="84.5" y="-115.8" font-family="Arial" font-size="14.00" fill="#000000">mem_ctrls </text>
<text text-anchor="middle" x="84.5" y="-100.8" font-family="Arial" font-size="14.00" fill="#000000">: SimpleMemory</text>
</a>
</g>
</g>
<g id="clust15" class="cluster">
<title>cluster_system_cpu</title>
<g id="a_clust15"><a xlink:title="branchPred=Null&#10;checker=Null&#10;clk_domain=system.cpu_clk_domain&#10;cpu_id=0&#10;default_p_state=UNDEFINED&#10;do_checkpoint_insts=true&#10;do_quiesce=true&#10;do_statistics_insts=true&#10;dtb=system.cpu.dtb&#10;eventq_index=0&#10;function_trace=false&#10;function_trace_start=0&#10;interrupts=system.cpu.interrupts&#10;isa=system.cpu.isa&#10;itb=system.cpu.itb&#10;max_insts_all_threads=0&#10;max_insts_any_thread=0&#10;&#10;umThreads=1&#10;p_state_clk_gate_bins=20&#10;p_state_clk_gate_max=1000000000000&#10;p_state_clk_gate_min=1000&#10;power_gating_on_idle=false&#10;power_model=&#10;profile=0&#10;progress_interval=0&#10;pwr_gating_latency=300&#10;simpoint_start_insts=&#10;socket_id=0&#10;switched_out=false&#10;syscallRetryLatency=10000&#10;system=system&#10;tracer=system.cpu.tracer&#10;wait_for_remote_gdb=false&#10;workload=system.cpu.workload">
<path fill="#bbc6d9" stroke="#000000" d="M165,-24C165,-24 671,-24 671,-24 677,-24 683,-30 683,-36 683,-36 683,-211 683,-211 683,-217 677,-223 671,-223 671,-223 165,-223 165,-223 159,-223 153,-217 153,-211 153,-211 153,-36 153,-36 153,-30 159,-24 165,-24"/>
<text text-anchor="middle" x="418" y="-207.8" font-family="Arial" font-size="14.00" fill="#000000">cpu </text>
<text text-anchor="middle" x="418" y="-192.8" font-family="Arial" font-size="14.00" fill="#000000">: TimingSimpleCPU</text>
</a>
</g>
</g>
<g id="clust17" class="cluster">
<title>cluster_system_cpu_dtb</title>
<g id="a_clust17"><a xlink:title="eventq_index=0&#10;is_stage2=false&#10;size=64&#10;sys=system&#10;walker=system.cpu.dtb.walker">
<path fill="#bab6ae" stroke="#000000" d="M542,-32C542,-32 663,-32 663,-32 669,-32 675,-38 675,-44 675,-44 675,-165 675,-165 675,-171 669,-177 663,-177 663,-177 542,-177 542,-177 536,-177 530,-171 530,-165 530,-165 530,-44 530,-44 530,-38 536,-32 542,-32"/>
<text text-anchor="middle" x="602.5" y="-161.8" font-family="Arial" font-size="14.00" fill="#000000">dtb </text>
<text text-anchor="middle" x="602.5" y="-146.8" font-family="Arial" font-size="14.00" fill="#000000">: ArmDTB</text>
</a>
</g>
</g>
<g id="clust18" class="cluster">
<title>cluster_system_cpu_dtb_walker</title>
<g id="a_clust18"><a xlink:title="clk_domain=system.cpu_clk_domain&#10;default_p_state=UNDEFINED&#10;eventq_index=0&#10;is_stage2=false&#10;&#10;um_squash_per_cycle=2&#10;p_state_clk_gate_bins=20&#10;p_state_clk_gate_max=1000000000000&#10;p_state_clk_gate_min=1000&#10;power_model=&#10;sys=system">
<path fill="#9f9c95" stroke="#000000" d="M550,-40C550,-40 655,-40 655,-40 661,-40 667,-46 667,-52 667,-52 667,-119 667,-119 667,-125 661,-131 655,-131 655,-131 550,-131 550,-131 544,-131 538,-125 538,-119 538,-119 538,-52 538,-52 538,-46 544,-40 550,-40"/>
<text text-anchor="middle" x="602.5" y="-115.8" font-family="Arial" font-size="14.00" fill="#000000">walker </text>
<text text-anchor="middle" x="602.5" y="-100.8" font-family="Arial" font-size="14.00" fill="#000000">: ArmTableWalker</text>
</a>
</g>
</g>
<g id="clust23" class="cluster">
<title>cluster_system_cpu_itb</title>
<g id="a_clust23"><a xlink:title="eventq_index=0&#10;is_stage2=false&#10;size=64&#10;sys=system&#10;walker=system.cpu.itb.walker">
<path fill="#bab6ae" stroke="#000000" d="M389,-32C389,-32 510,-32 510,-32 516,-32 522,-38 522,-44 522,-44 522,-165 522,-165 522,-171 516,-177 510,-177 510,-177 389,-177 389,-177 383,-177 377,-171 377,-165 377,-165 377,-44 377,-44 377,-38 383,-32 389,-32"/>
<text text-anchor="middle" x="449.5" y="-161.8" font-family="Arial" font-size="14.00" fill="#000000">itb </text>
<text text-anchor="middle" x="449.5" y="-146.8" font-family="Arial" font-size="14.00" fill="#000000">: ArmITB</text>
</a>
</g>
</g>
<g id="clust24" class="cluster">
<title>cluster_system_cpu_itb_walker</title>
<g id="a_clust24"><a xlink:title="clk_domain=system.cpu_clk_domain&#10;default_p_state=UNDEFINED&#10;eventq_index=0&#10;is_stage2=false&#10;&#10;um_squash_per_cycle=2&#10;p_state_clk_gate_bins=20&#10;p_state_clk_gate_max=1000000000000&#10;p_state_clk_gate_min=1000&#10;power_model=&#10;sys=system">
<path fill="#9f9c95" stroke="#000000" d="M397,-40C397,-40 502,-40 502,-40 508,-40 514,-46 514,-52 514,-52 514,-119 514,-119 514,-125 508,-131 502,-131 502,-131 397,-131 397,-131 391,-131 385,-125 385,-119 385,-119 385,-52 385,-52 385,-46 391,-40 397,-40"/>
<text text-anchor="middle" x="449.5" y="-115.8" font-family="Arial" font-size="14.00" fill="#000000">walker </text>
<text text-anchor="middle" x="449.5" y="-100.8" font-family="Arial" font-size="14.00" fill="#000000">: ArmTableWalker</text>
</a>
</g>
</g>
<!-- system_system_port -->
<g id="node1" class="node">
<title>system_system_port</title>
<path fill="#b6b8bc" stroke="#000000" d="M287,-370.5C287,-370.5 359,-370.5 359,-370.5 365,-370.5 371,-376.5 371,-382.5 371,-382.5 371,-394.5 371,-394.5 371,-400.5 365,-406.5 359,-406.5 359,-406.5 287,-406.5 287,-406.5 281,-406.5 275,-400.5 275,-394.5 275,-394.5 275,-382.5 275,-382.5 275,-376.5 281,-370.5 287,-370.5"/>
<text text-anchor="middle" x="323" y="-384.8" font-family="Arial" font-size="14.00" fill="#000000">system_port</text>
</g>
<!-- system_membus_slave -->
<g id="node3" class="node">
<title>system_membus_slave</title>
<path fill="#586070" stroke="#000000" d="M308,-239.5C308,-239.5 338,-239.5 338,-239.5 344,-239.5 350,-245.5 350,-251.5 350,-251.5 350,-263.5 350,-263.5 350,-269.5 344,-275.5 338,-275.5 338,-275.5 308,-275.5 308,-275.5 302,-275.5 296,-269.5 296,-263.5 296,-263.5 296,-251.5 296,-251.5 296,-245.5 302,-239.5 308,-239.5"/>
<text text-anchor="middle" x="323" y="-253.8" font-family="Arial" font-size="14.00" fill="#000000">slave</text>
</g>
<!-- system_system_port&#45;&gt;system_membus_slave -->
<g id="edge1" class="edge">
<title>system_system_port&#45;&gt;system_membus_slave</title>
<path fill="none" stroke="#000000" d="M323,-370.285C323,-348.3856 323,-311.3861 323,-285.7663"/>
<polygon fill="#000000" stroke="#000000" points="326.5001,-285.5603 323,-275.5603 319.5001,-285.5603 326.5001,-285.5603"/>
</g>
<!-- system_membus_master -->
<g id="node2" class="node">
<title>system_membus_master</title>
<path fill="#586070" stroke="#000000" d="M228.5,-239.5C228.5,-239.5 265.5,-239.5 265.5,-239.5 271.5,-239.5 277.5,-245.5 277.5,-251.5 277.5,-251.5 277.5,-263.5 277.5,-263.5 277.5,-269.5 271.5,-275.5 265.5,-275.5 265.5,-275.5 228.5,-275.5 228.5,-275.5 222.5,-275.5 216.5,-269.5 216.5,-263.5 216.5,-263.5 216.5,-251.5 216.5,-251.5 216.5,-245.5 222.5,-239.5 228.5,-239.5"/>
<text text-anchor="middle" x="247" y="-253.8" font-family="Arial" font-size="14.00" fill="#000000">master</text>
</g>
<!-- system_mem_ctrls_port -->
<g id="node4" class="node">
<title>system_mem_ctrls_port</title>
<path fill="#4b4746" stroke="#000000" d="M95,-48.5C95,-48.5 125,-48.5 125,-48.5 131,-48.5 137,-54.5 137,-60.5 137,-60.5 137,-72.5 137,-72.5 137,-78.5 131,-84.5 125,-84.5 125,-84.5 95,-84.5 95,-84.5 89,-84.5 83,-78.5 83,-72.5 83,-72.5 83,-60.5 83,-60.5 83,-54.5 89,-48.5 95,-48.5"/>
<text text-anchor="middle" x="110" y="-62.8" font-family="Arial" font-size="14.00" fill="#000000">port</text>
</g>
<!-- system_membus_master&#45;&gt;system_mem_ctrls_port -->
<g id="edge2" class="edge">
<title>system_membus_master&#45;&gt;system_mem_ctrls_port</title>
<path fill="none" stroke="#000000" d="M216.2619,-254.339C194.5049,-250.4872 166.2378,-241.9444 149,-223 116.7763,-187.586 110.2001,-129.6586 109.3857,-95.0932"/>
<polygon fill="#000000" stroke="#000000" points="112.8828,-94.7198 109.2986,-84.7497 105.883,-94.7789 112.8828,-94.7198"/>
</g>
<!-- system_cpu_icache_port -->
<g id="node5" class="node">
<title>system_cpu_icache_port</title>
<path fill="#959ead" stroke="#000000" d="M289,-48.5C289,-48.5 357,-48.5 357,-48.5 363,-48.5 369,-54.5 369,-60.5 369,-60.5 369,-72.5 369,-72.5 369,-78.5 363,-84.5 357,-84.5 357,-84.5 289,-84.5 289,-84.5 283,-84.5 277,-78.5 277,-72.5 277,-72.5 277,-60.5 277,-60.5 277,-54.5 283,-48.5 289,-48.5"/>
<text text-anchor="middle" x="323" y="-62.8" font-family="Arial" font-size="14.00" fill="#000000">icache_port</text>
</g>
<!-- system_membus_slave&#45;&gt;system_cpu_icache_port -->
<g id="edge3" class="edge">
<title>system_membus_slave&#45;&gt;system_cpu_icache_port</title>
<path fill="none" stroke="#000000" d="M323,-229.09C323,-189.3133 323,-118.1585 323,-84.7584"/>
<polygon fill="#000000" stroke="#000000" points="319.5001,-229.1861 323,-239.1861 326.5001,-229.1862 319.5001,-229.1861"/>
</g>
<!-- system_cpu_dcache_port -->
<g id="node6" class="node">
<title>system_cpu_dcache_port</title>
<path fill="#959ead" stroke="#000000" d="M173,-48.5C173,-48.5 247,-48.5 247,-48.5 253,-48.5 259,-54.5 259,-60.5 259,-60.5 259,-72.5 259,-72.5 259,-78.5 253,-84.5 247,-84.5 247,-84.5 173,-84.5 173,-84.5 167,-84.5 161,-78.5 161,-72.5 161,-72.5 161,-60.5 161,-60.5 161,-54.5 167,-48.5 173,-48.5"/>
<text text-anchor="middle" x="210" y="-62.8" font-family="Arial" font-size="14.00" fill="#000000">dcache_port</text>
</g>
<!-- system_membus_slave&#45;&gt;system_cpu_dcache_port -->
<g id="edge4" class="edge">
<title>system_membus_slave&#45;&gt;system_cpu_dcache_port</title>
<path fill="none" stroke="#000000" d="M291.4731,-233.667C289.9799,-232.7372 288.4846,-231.8432 287,-231 279.0329,-226.4749 274.336,-229.6186 268,-223 230.0288,-183.3358 216.4919,-116.6395 212.0212,-84.6652"/>
<polygon fill="#000000" stroke="#000000" points="289.6482,-236.6567 299.9131,-239.2801 293.5246,-230.828 289.6482,-236.6567"/>
</g>
<!-- system_cpu_dtb_walker_port -->
<g id="node7" class="node">
<title>system_cpu_dtb_walker_port</title>
<path fill="#7f7c77" stroke="#000000" d="M558,-48.5C558,-48.5 588,-48.5 588,-48.5 594,-48.5 600,-54.5 600,-60.5 600,-60.5 600,-72.5 600,-72.5 600,-78.5 594,-84.5 588,-84.5 588,-84.5 558,-84.5 558,-84.5 552,-84.5 546,-78.5 546,-72.5 546,-72.5 546,-60.5 546,-60.5 546,-54.5 552,-48.5 558,-48.5"/>
<text text-anchor="middle" x="573" y="-62.8" font-family="Arial" font-size="14.00" fill="#000000">port</text>
</g>
<!-- system_membus_slave&#45;&gt;system_cpu_dtb_walker_port -->
<g id="edge6" class="edge">
<title>system_membus_slave&#45;&gt;system_cpu_dtb_walker_port</title>
<path fill="none" stroke="#000000" d="M360.2995,-255.3213C410.1021,-251.6857 494.7567,-242.7361 518,-223 559.93,-187.3969 569.9087,-117.8036 572.2728,-84.7586"/>
<polygon fill="#000000" stroke="#000000" points="359.9701,-251.8356 350.2359,-256.0184 360.4538,-258.8189 359.9701,-251.8356"/>
</g>
<!-- system_cpu_itb_walker_port -->
<g id="node8" class="node">
<title>system_cpu_itb_walker_port</title>
<path fill="#7f7c77" stroke="#000000" d="M405,-48.5C405,-48.5 435,-48.5 435,-48.5 441,-48.5 447,-54.5 447,-60.5 447,-60.5 447,-72.5 447,-72.5 447,-78.5 441,-84.5 435,-84.5 435,-84.5 405,-84.5 405,-84.5 399,-84.5 393,-78.5 393,-72.5 393,-72.5 393,-60.5 393,-60.5 393,-54.5 399,-48.5 405,-48.5"/>
<text text-anchor="middle" x="420" y="-62.8" font-family="Arial" font-size="14.00" fill="#000000">port</text>
</g>
<!-- system_membus_slave&#45;&gt;system_cpu_itb_walker_port -->
<g id="edge5" class="edge">
<title>system_membus_slave&#45;&gt;system_cpu_itb_walker_port</title>
<path fill="none" stroke="#000000" d="M359.702,-245.4187C370.625,-240.1418 381.6314,-232.8486 389,-223 420.1951,-181.306 422.2909,-116.4486 421.2033,-84.9348"/>
<polygon fill="#000000" stroke="#000000" points="357.9879,-242.3477 350.2181,-249.5506 360.7838,-248.7651 357.9879,-242.3477"/>
</g>
</g>
</svg>
